<svg width="32" height="34" viewBox="0 0 32 34" fill="none" xmlns="http://www.w3.org/2000/svg">
<path d="M27.3367 4.94708C25.8622 3.37306 24.1062 2.12503 22.1709 1.2757C20.2356 0.42638 18.1597 -0.00724737 16.0643 9.16215e-05C7.28442 9.16215e-05 0.128643 7.56507 0.128643 16.847C0.128643 19.822 0.868342 22.712 2.25126 25.262L0 34L8.44221 31.654C10.7739 32.997 13.395 33.711 16.0643 33.711C24.8442 33.711 32 26.146 32 16.864C32 12.3591 30.3437 8.12607 27.3367 4.94708ZM16.0643 30.855C13.6844 30.855 11.3528 30.175 9.31055 28.9L8.82814 28.594L3.81106 29.988L5.14573 24.82L4.82412 24.293C3.50158 22.061 2.79948 19.4808 2.79799 16.847C2.79799 9.12907 8.74774 2.83908 16.0482 2.83908C19.5859 2.83908 22.9146 4.30108 25.407 6.95307C26.6414 8.25164 27.6196 9.79639 28.2848 11.4977C28.9501 13.1991 29.2892 15.0231 29.2824 16.864C29.3146 24.582 23.3648 30.855 16.0643 30.855ZM23.3327 20.383C22.9307 20.179 20.9688 19.159 20.6151 19.006C20.2452 18.87 19.9879 18.802 19.7146 19.21C19.4412 19.635 18.6854 20.587 18.4603 20.859C18.2352 21.148 17.994 21.182 17.592 20.961C17.1899 20.757 15.9035 20.298 14.392 18.87C13.202 17.748 12.4141 16.371 12.1729 15.9461C11.9477 15.5211 12.1407 15.3001 12.3497 15.0791C12.5266 14.8921 12.7518 14.5861 12.9447 14.3481C13.1377 14.1101 13.2181 13.9231 13.3467 13.6511C13.4754 13.3621 13.4111 13.1241 13.3146 12.9201C13.2181 12.7161 12.4141 10.6421 12.0925 9.79207C11.7709 8.97607 11.4332 9.07807 11.192 9.06107H10.4201C10.1467 9.06107 9.72864 9.16307 9.35879 9.58807C9.00502 10.0131 7.97588 11.0331 7.97588 13.1071C7.97588 15.1811 9.40703 17.187 9.6 17.459C9.79296 17.748 12.4141 21.998 16.402 23.817C17.3508 24.259 18.0905 24.514 18.6693 24.701C19.6181 25.024 20.4864 24.973 21.1779 24.871C21.9497 24.752 23.5417 23.851 23.8633 22.865C24.201 21.879 24.201 21.046 24.0884 20.859C23.9759 20.672 23.7347 20.587 23.3327 20.383Z" fill="#F9F9FA" fill-opacity="0.7"/>
</svg>
